# xmcd
#
# Track frame offsets: 
#        150
#        38800
#        60413
#        89101
#        107276
#        127189
#        152666
#        188177
#        211738
#        231728
#        247168
#        267474
#
# Disc length: 3816 seconds
#
# Revision: 1
# Processed by: cddbd v1.5.2PL0 Copyright (c) Steve Scherf et al.
# Submitted via: ExactAudioCopy v0.90b4
#
DISCID=af0ee60c
DTITLE=Geoge Shearing - The Master Touch Vol 1
DYEAR=2000
DGENRE=Jazz
TTITLE0=One For The Woofer
TTITLE1=Soon It's Gonna Rain
TTITLE2=Don't Explain
TTITLE3=Have You Met Miss Jones
TTITLE4=Pent Up House
TTITLE5=I Cover The Waterfront
TTITLE6=You Must Believe In Spring
TTITLE7=I Won't Dance
TTITLE8=To Hank Jones
TTITLE9=Triste
TTITLE10=It Had To Be You
TTITLE11=For You
EXTD=YEAR: 2000
EXTT0=
EXTT1=
EXTT2=
EXTT3=
EXTT4=
EXTT5=
EXTT6=
EXTT7=
EXTT8=
EXTT9=
EXTT10=
EXTT11=
PLAYORDER=
